PathFileType	4	(X/Y/Z)	/home/abdul/Desktop/myosuite/custom_workspace/IK/output/S19_12_1.trc
DataRate	CameraRate	NumFrames	NumMarkers	Units	OrigDataRate	OrigDataStartFrame	OrigNumFrames
200.0	200.0	48	3	mm	200.0	1	1694
Frame#	Time	V_Shoulder			V_Elbow			V_Wrist		
		X1	Y1	Z1	X2	Y2	Z2	X3	Y3	Z3

1	0.0	-110.237292312433	697.9295692691067	318.012541666741				-197.8860290893037	354.65284976966194	30.146291566820068
2	0.005	-110.26602377661436	697.878967359758	317.99619051481704				-197.87215718430485	354.5219153111751	30.177132625869866
3	0.01	-110.29484728672924	697.8260619752788	317.98007325886385				-197.85222598830634	354.3821153888198	30.21460947794092
4	0.015	-110.32370799882553	697.7707974500266	317.96423746512363				-197.82579370989748	354.23312416631444	30.259142564220156
5	0.02	-110.35254965610004	697.7131182717461	317.9487313346578				-197.79241013999277	354.0746156175935	30.311157128535896
6	0.025	-110.38131469693656	697.6529691373008	317.9336035839113				-197.75161741536783	353.9062640970958	30.371082256723955
7	0.03	-110.40994436559731	697.590295009751	317.91890332266667				-197.7029508227569	353.7277449193013	30.439349870332247
8	0.035	-110.43837882506563	697.525041176565	317.90467992986333				-197.64593964150438	353.53873494519917	30.516393676909736
9	0.04	-110.46655727154355	697.4571533087395	317.8909829277607				-197.58010802262743	353.33891317333143	30.602648079345947
10	0.045	-110.49441805011706	697.3865775205873	317.87786185492195				-197.5049759020229	353.12796133303937	30.698547046938508
11	0.05	-110.5218987711141	697.3132604299485	317.8653661384898				-197.42005994544445	352.9055644775466	30.804522951069107
12	0.055	-110.54893642669528	697.2371492185813	317.85354496622324				-197.32487452277758	352.671411574541	30.921005368561588
13	0.06	-110.5754675072343	697.1581916924812	317.84244715875116				-197.21893270905474	352.42519609196034	31.048419855980864
14	0.065	-110.6014281170655	697.0763363418864	317.83212104249014				-197.10174730957618	352.1666165767513	31.187186698306522
15	0.07	-110.62675408919608	696.9915324007275	317.8226143236616				-196.97283190643503	351.895377224448	31.337719635581152
16	0.075	-110.65138109860436	696.903729905291	317.81397396382783				-196.83170192368516	351.6111884375067	31.50042457128952
17	0.08	-110.67524477376877	696.8128797518674	317.8062460573521				-196.6778757083393	351.3137673704394	31.67569826637056
18	0.085	-110.69828080609773	696.7189337531732	317.7994757111695				-196.51087562433878	351.00283845989964	31.863927022899286
19	0.09	-110.72042505695667	696.6218446933443	317.7937069272404				-196.330229156598	350.67813393800316	32.06548536159919
20	0.095	-110.74161366201322	696.521566381306	317.78898248803654				-196.13547002219312	350.33939432729244	32.28073469745745
21	0.1	-110.76178313265036	696.4180537023514	317.78534384539216				-195.92613928573732	349.9863689158988	32.510022017814364
22	0.105	-110.78087045422195	696.3112626677602	317.7828310130322				-195.7017864759618	349.6188162115959	32.75367856738348
23	0.11	-110.79881318095296	696.2011504623161	317.78148246306915				-195.46197070050528	349.2365043735899	33.012018544730786
24	0.115	-110.81554952731238	696.0876754895916	317.7813350267402				-195.20626175590252	348.8392116210439	33.28533781479766
25	0.12	-110.83101845571319	695.9707974148845	317.7824237996329				-194.93424122975415	348.4267266174878	33.57391264209308
26	0.125	-110.84515976041848	695.8504772057137	317.78478205163134				-194.64550359205919	347.9988488304213	33.87799844920533
27	0.13	-110.85791414755802	695.7266771697869	317.78844114178736				-194.33965727269293	347.555388865571	34.19782860529088
28	0.135	-110.86922331118285	695.5993609903794	317.79343043830835				-194.0163257220227	347.09616877542067	34.5336132491879
29	0.14	-110.87903000530868	695.4684937590742	317.799777243825				-193.67514845166548	346.6210223417823	34.88553815177348
30	0.145	-110.88727811192079	695.3340420058299	317.80750672608747				-193.3157820524125	346.1297953323276	35.25376362213616
31	0.15	-110.89391270493381	695.1959737263613	317.8166418542158				-192.93790118637054	345.6223457311429	35.638423462068786
32	0.155	-110.89888011011963	695.0542584068244	317.82720334061145				-192.54119955039994	345.0985439435116	36.03962397330008
33	0.16	-110.90212796103492	694.9088670458265	317.83920958861836				-192.12539080796924	344.55827297526355	36.457443021777266
34	0.165	-110.90360525099692	694.7597721737785	317.8526766460017				-191.6902094865904	344.00142858715947	36.89192916318503
35	0.17	-110.90326238117251	694.6069478696345	317.86761816429583				-191.2354118380518	343.42791942489595	37.343100833739605
36	0.175	-110.9010512048597	694.4503697750673	317.88404536405466				-190.76077665872577	342.837667125435	37.81094561012946
37	0.18	-110.89692506805427	694.2900151061425	317.90196700602064				-190.26610606729605	342.2306064004625	38.29541954228732
38	0.185	-110.8908388464062	694.1258626625686	317.9213893682116				-189.75122623732716	341.6066850978768	38.7964465624713
39	0.19	-110.88274897868091	693.9578928346024	317.94231622891016				-189.21598808218369	340.9658642422943	39.31391797390729
40	0.195	-110.87261349685024	693.7860876077074	317.9647488555239				-188.66026788990135	340.3081180556346	39.84769202200032
41	0.2	-110.86039205294539	693.6104305650642	317.98868599927016				-188.08396790571646	339.63343395891286	40.397593550860364
42	0.205	-110.84604594281139	693.4309068880434	318.01412389562586				-187.48701686007297	338.94181255642076	40.96341374760886
43	0.21	-110.82953812690793	693.2475033547565	318.04105627046863				-186.8693704400501	338.2332676035239	41.54490997663761
44	0.215	-110.81083324830557	693.0602083368049	318.06947435182303				-186.23101170228637	337.5078259593319	42.14180570568162
45	0.22	-110.78989764802971	692.8690117943544	318.0993668871143				-185.57195142561767	336.7655275255229	42.753790525245094
46	0.225	-110.76669937790626	692.6739052696663	318.13072016581987				-184.89222840180088	336.00642517261133	43.38052026258426
47	0.23	-110.74120821106392	692.474881879214	318.163518047398				-184.19190966285473	335.23058465494955	44.02161719110578
48	0.235	-110.71339565024813	692.2719363045247	318.1977419943628				-183.471090643723	334.4380845157416	44.676670335685266
